<mxfile host="Electron" modified="2023-10-16T18:40:25.650Z" agent="Mozilla/5.0 (Macintosh; Intel Mac OS X 10_15_7) AppleWebKit/537.36 (KHTML, like Gecko) draw.io/21.6.5 Chrome/114.0.5735.243 Electron/25.3.1 Safari/537.36" etag="SeDGXjLz_9RWGszPHhuH" version="21.6.5" type="device">
  <diagram name="Page-1" id="q_kvqxkBFznMDWHG6xlm">
    <mxGraphModel dx="1455" dy="1054" grid="1" gridSize="10" guides="1" tooltips="1" connect="1" arrows="1" fold="1" page="1" pageScale="1" pageWidth="1169" pageHeight="827" math="0" shadow="0">
      <root>
        <mxCell id="0" />
        <mxCell id="1" parent="0" />
        <mxCell id="QdMFIpOWDVR-zZth7uCI-38" style="edgeStyle=orthogonalEdgeStyle;rounded=0;orthogonalLoop=1;jettySize=auto;html=1;entryX=0.5;entryY=0;entryDx=0;entryDy=0;jumpSize=6;strokeWidth=3;strokeColor=#ffffff;" parent="1" source="QdMFIpOWDVR-zZth7uCI-1" target="QdMFIpOWDVR-zZth7uCI-4" edge="1">
          <mxGeometry relative="1" as="geometry" />
        </mxCell>
        <mxCell id="QdMFIpOWDVR-zZth7uCI-39" style="edgeStyle=orthogonalEdgeStyle;rounded=0;orthogonalLoop=1;jettySize=auto;html=1;exitX=0;exitY=0.5;exitDx=0;exitDy=0;entryX=1;entryY=0;entryDx=0;entryDy=0;jumpSize=6;strokeWidth=3;strokeColor=#ffffff;" parent="1" source="QdMFIpOWDVR-zZth7uCI-1" target="QdMFIpOWDVR-zZth7uCI-3" edge="1">
          <mxGeometry relative="1" as="geometry">
            <Array as="points">
              <mxPoint x="460" y="139" />
              <mxPoint x="460" y="189" />
              <mxPoint x="400" y="189" />
              <mxPoint x="400" y="241" />
            </Array>
          </mxGeometry>
        </mxCell>
        <mxCell id="QdMFIpOWDVR-zZth7uCI-40" style="edgeStyle=orthogonalEdgeStyle;rounded=0;orthogonalLoop=1;jettySize=auto;html=1;exitX=1;exitY=0.5;exitDx=0;exitDy=0;entryX=0;entryY=0;entryDx=0;entryDy=0;jumpSize=6;strokeWidth=3;strokeColor=#ffffff;" parent="1" source="QdMFIpOWDVR-zZth7uCI-1" target="QdMFIpOWDVR-zZth7uCI-5" edge="1">
          <mxGeometry relative="1" as="geometry">
            <Array as="points">
              <mxPoint x="700" y="139" />
              <mxPoint x="700" y="189" />
              <mxPoint x="760" y="189" />
              <mxPoint x="760" y="241" />
            </Array>
          </mxGeometry>
        </mxCell>
        <mxCell id="QdMFIpOWDVR-zZth7uCI-1" value="Investment Firm" style="rounded=0;whiteSpace=wrap;html=1;fillColor=#008a00;fontColor=#ffffff;strokeColor=#FFFFFF;" parent="1" vertex="1">
          <mxGeometry x="520" y="109" width="120" height="60" as="geometry" />
        </mxCell>
        <mxCell id="QdMFIpOWDVR-zZth7uCI-35" style="edgeStyle=orthogonalEdgeStyle;rounded=0;orthogonalLoop=1;jettySize=auto;html=1;exitX=0.5;exitY=1;exitDx=0;exitDy=0;entryX=1;entryY=0;entryDx=0;entryDy=0;jumpSize=6;strokeWidth=3;strokeColor=#ffffff;" parent="1" source="QdMFIpOWDVR-zZth7uCI-3" target="QdMFIpOWDVR-zZth7uCI-8" edge="1">
          <mxGeometry relative="1" as="geometry" />
        </mxCell>
        <mxCell id="QdMFIpOWDVR-zZth7uCI-36" style="edgeStyle=orthogonalEdgeStyle;rounded=0;orthogonalLoop=1;jettySize=auto;html=1;exitX=0;exitY=1;exitDx=0;exitDy=0;entryX=1;entryY=0;entryDx=0;entryDy=0;jumpSize=6;strokeWidth=3;strokeColor=#ffffff;" parent="1" source="QdMFIpOWDVR-zZth7uCI-3" target="QdMFIpOWDVR-zZth7uCI-7" edge="1">
          <mxGeometry relative="1" as="geometry" />
        </mxCell>
        <mxCell id="QdMFIpOWDVR-zZth7uCI-37" style="edgeStyle=orthogonalEdgeStyle;rounded=0;orthogonalLoop=1;jettySize=auto;html=1;exitX=0;exitY=0.5;exitDx=0;exitDy=0;entryX=0;entryY=1;entryDx=0;entryDy=0;jumpSize=6;strokeWidth=3;strokeColor=#ffffff;" parent="1" source="QdMFIpOWDVR-zZth7uCI-3" target="QdMFIpOWDVR-zZth7uCI-6" edge="1">
          <mxGeometry relative="1" as="geometry" />
        </mxCell>
        <mxCell id="QdMFIpOWDVR-zZth7uCI-3" value="Fund&lt;br&gt;A" style="ellipse;whiteSpace=wrap;html=1;fillColor=#a20025;fontColor=#ffffff;strokeColor=#ffffff;" parent="1" vertex="1">
          <mxGeometry x="290" y="229" width="80" height="80" as="geometry" />
        </mxCell>
        <mxCell id="QdMFIpOWDVR-zZth7uCI-29" style="edgeStyle=orthogonalEdgeStyle;rounded=0;orthogonalLoop=1;jettySize=auto;html=1;exitX=0;exitY=0.5;exitDx=0;exitDy=0;entryX=1;entryY=0;entryDx=0;entryDy=0;jumpSize=6;strokeWidth=3;strokeColor=#ffffff;" parent="1" source="QdMFIpOWDVR-zZth7uCI-4" target="QdMFIpOWDVR-zZth7uCI-12" edge="1">
          <mxGeometry relative="1" as="geometry" />
        </mxCell>
        <mxCell id="QdMFIpOWDVR-zZth7uCI-30" style="edgeStyle=orthogonalEdgeStyle;rounded=0;orthogonalLoop=1;jettySize=auto;html=1;exitX=0.5;exitY=1;exitDx=0;exitDy=0;entryX=0.5;entryY=0;entryDx=0;entryDy=0;jumpSize=6;strokeWidth=3;strokeColor=#ffffff;" parent="1" source="QdMFIpOWDVR-zZth7uCI-4" target="QdMFIpOWDVR-zZth7uCI-13" edge="1">
          <mxGeometry relative="1" as="geometry" />
        </mxCell>
        <mxCell id="QdMFIpOWDVR-zZth7uCI-31" style="edgeStyle=orthogonalEdgeStyle;rounded=0;orthogonalLoop=1;jettySize=auto;html=1;exitX=1;exitY=0.5;exitDx=0;exitDy=0;entryX=0.5;entryY=0;entryDx=0;entryDy=0;jumpSize=6;strokeWidth=3;strokeColor=#ffffff;" parent="1" source="QdMFIpOWDVR-zZth7uCI-4" target="QdMFIpOWDVR-zZth7uCI-14" edge="1">
          <mxGeometry relative="1" as="geometry" />
        </mxCell>
        <mxCell id="QdMFIpOWDVR-zZth7uCI-4" value="Fund&lt;br&gt;B" style="ellipse;whiteSpace=wrap;html=1;fillColor=#a20025;fontColor=#ffffff;strokeColor=#ffffff;" parent="1" vertex="1">
          <mxGeometry x="540" y="279" width="80" height="80" as="geometry" />
        </mxCell>
        <mxCell id="QdMFIpOWDVR-zZth7uCI-32" style="edgeStyle=orthogonalEdgeStyle;rounded=0;orthogonalLoop=1;jettySize=auto;html=1;exitX=0.5;exitY=1;exitDx=0;exitDy=0;entryX=0;entryY=0;entryDx=0;entryDy=0;jumpSize=6;strokeWidth=3;strokeColor=#ffffff;" parent="1" source="QdMFIpOWDVR-zZth7uCI-5" target="QdMFIpOWDVR-zZth7uCI-9" edge="1">
          <mxGeometry relative="1" as="geometry" />
        </mxCell>
        <mxCell id="QdMFIpOWDVR-zZth7uCI-33" style="edgeStyle=orthogonalEdgeStyle;rounded=0;orthogonalLoop=1;jettySize=auto;html=1;exitX=1;exitY=1;exitDx=0;exitDy=0;entryX=0;entryY=0;entryDx=0;entryDy=0;jumpSize=6;strokeWidth=3;strokeColor=#ffffff;" parent="1" source="QdMFIpOWDVR-zZth7uCI-5" target="QdMFIpOWDVR-zZth7uCI-10" edge="1">
          <mxGeometry relative="1" as="geometry" />
        </mxCell>
        <mxCell id="QdMFIpOWDVR-zZth7uCI-34" style="edgeStyle=orthogonalEdgeStyle;rounded=0;orthogonalLoop=1;jettySize=auto;html=1;exitX=1;exitY=0.5;exitDx=0;exitDy=0;entryX=0;entryY=0;entryDx=0;entryDy=0;jumpSize=6;strokeWidth=3;strokeColor=#ffffff;" parent="1" source="QdMFIpOWDVR-zZth7uCI-5" target="QdMFIpOWDVR-zZth7uCI-11" edge="1">
          <mxGeometry relative="1" as="geometry" />
        </mxCell>
        <mxCell id="QdMFIpOWDVR-zZth7uCI-5" value="Func&lt;br&gt;C" style="ellipse;whiteSpace=wrap;html=1;fillColor=#a20025;fontColor=#ffffff;strokeColor=#ffffff;" parent="1" vertex="1">
          <mxGeometry x="790" y="229" width="80" height="80" as="geometry" />
        </mxCell>
        <mxCell id="QdMFIpOWDVR-zZth7uCI-21" style="edgeStyle=orthogonalEdgeStyle;rounded=0;orthogonalLoop=1;jettySize=auto;html=1;exitX=1;exitY=0;exitDx=0;exitDy=0;jumpSize=6;strokeWidth=3;strokeColor=#ffffff;" parent="1" source="QdMFIpOWDVR-zZth7uCI-6" target="QdMFIpOWDVR-zZth7uCI-15" edge="1">
          <mxGeometry relative="1" as="geometry">
            <Array as="points">
              <mxPoint x="120" y="330" />
              <mxPoint x="70" y="330" />
            </Array>
          </mxGeometry>
        </mxCell>
        <mxCell id="QdMFIpOWDVR-zZth7uCI-6" value="PM&lt;br&gt;a" style="rhombus;whiteSpace=wrap;html=1;flipH=1;direction=west;fillColor=#fa6800;fontColor=#000000;strokeColor=#ffffff;" parent="1" vertex="1">
          <mxGeometry x="100" y="249" width="80" height="80" as="geometry" />
        </mxCell>
        <mxCell id="QdMFIpOWDVR-zZth7uCI-22" style="edgeStyle=orthogonalEdgeStyle;rounded=0;orthogonalLoop=1;jettySize=auto;html=1;exitX=0;exitY=1;exitDx=0;exitDy=0;entryX=1;entryY=0.5;entryDx=0;entryDy=0;entryPerimeter=0;jumpSize=6;strokeWidth=3;strokeColor=#ffffff;" parent="1" source="QdMFIpOWDVR-zZth7uCI-7" target="QdMFIpOWDVR-zZth7uCI-15" edge="1">
          <mxGeometry relative="1" as="geometry">
            <mxPoint x="80" y="439" as="targetPoint" />
            <Array as="points">
              <mxPoint x="190" y="389" />
              <mxPoint x="190" y="410" />
              <mxPoint x="170" y="410" />
              <mxPoint x="170" y="430" />
              <mxPoint x="150" y="430" />
              <mxPoint x="150" y="450" />
              <mxPoint x="130" y="450" />
              <mxPoint x="130" y="470" />
              <mxPoint x="110" y="470" />
              <mxPoint x="110" y="483" />
            </Array>
          </mxGeometry>
        </mxCell>
        <mxCell id="QdMFIpOWDVR-zZth7uCI-7" value="PM&lt;br&gt;b" style="rhombus;whiteSpace=wrap;html=1;fillColor=#fa6800;fontColor=#000000;strokeColor=#ffffff;" parent="1" vertex="1">
          <mxGeometry x="190" y="329" width="80" height="80" as="geometry" />
        </mxCell>
        <mxCell id="QdMFIpOWDVR-zZth7uCI-23" style="edgeStyle=orthogonalEdgeStyle;rounded=0;orthogonalLoop=1;jettySize=auto;html=1;exitX=0;exitY=1;exitDx=0;exitDy=0;entryX=0.5;entryY=0;entryDx=0;entryDy=0;entryPerimeter=0;jumpSize=6;strokeWidth=3;strokeColor=#ffffff;" parent="1" source="QdMFIpOWDVR-zZth7uCI-8" target="QdMFIpOWDVR-zZth7uCI-16" edge="1">
          <mxGeometry relative="1" as="geometry">
            <Array as="points">
              <mxPoint x="270" y="469" />
              <mxPoint x="270" y="530" />
              <mxPoint x="230" y="530" />
            </Array>
          </mxGeometry>
        </mxCell>
        <mxCell id="QdMFIpOWDVR-zZth7uCI-24" style="edgeStyle=orthogonalEdgeStyle;rounded=0;orthogonalLoop=1;jettySize=auto;html=1;exitX=0.5;exitY=1;exitDx=0;exitDy=0;entryX=0.5;entryY=0;entryDx=0;entryDy=0;entryPerimeter=0;jumpSize=6;strokeWidth=3;strokeColor=#ffffff;" parent="1" source="QdMFIpOWDVR-zZth7uCI-8" target="QdMFIpOWDVR-zZth7uCI-17" edge="1">
          <mxGeometry relative="1" as="geometry">
            <Array as="points">
              <mxPoint x="310" y="530" />
              <mxPoint x="380" y="530" />
              <mxPoint x="380" y="570" />
              <mxPoint x="560" y="570" />
              <mxPoint x="560" y="610" />
              <mxPoint x="710" y="610" />
            </Array>
          </mxGeometry>
        </mxCell>
        <mxCell id="QdMFIpOWDVR-zZth7uCI-8" value="PM&lt;br&gt;c" style="rhombus;whiteSpace=wrap;html=1;fillColor=#fa6800;fontColor=#000000;strokeColor=#ffffff;" parent="1" vertex="1">
          <mxGeometry x="270" y="409" width="80" height="80" as="geometry" />
        </mxCell>
        <mxCell id="QdMFIpOWDVR-zZth7uCI-43" style="edgeStyle=orthogonalEdgeStyle;rounded=0;orthogonalLoop=1;jettySize=auto;html=1;exitX=0.5;exitY=1;exitDx=0;exitDy=0;entryX=0.5;entryY=0.125;entryDx=0;entryDy=0;entryPerimeter=0;jumpSize=6;strokeWidth=3;strokeColor=#ffffff;" parent="1" source="QdMFIpOWDVR-zZth7uCI-9" target="QdMFIpOWDVR-zZth7uCI-20" edge="1">
          <mxGeometry relative="1" as="geometry">
            <Array as="points">
              <mxPoint x="850" y="520" />
              <mxPoint x="790" y="520" />
              <mxPoint x="790" y="560" />
              <mxPoint x="750" y="560" />
              <mxPoint x="750" y="590" />
              <mxPoint x="450" y="590" />
            </Array>
          </mxGeometry>
        </mxCell>
        <mxCell id="QdMFIpOWDVR-zZth7uCI-45" style="edgeStyle=orthogonalEdgeStyle;rounded=0;orthogonalLoop=1;jettySize=auto;html=1;exitX=1;exitY=1;exitDx=0;exitDy=0;entryX=0.5;entryY=0;entryDx=0;entryDy=0;entryPerimeter=0;jumpSize=6;strokeWidth=3;strokeColor=#ffffff;" parent="1" source="QdMFIpOWDVR-zZth7uCI-9" target="QdMFIpOWDVR-zZth7uCI-18" edge="1">
          <mxGeometry relative="1" as="geometry">
            <Array as="points">
              <mxPoint x="870" y="530" />
              <mxPoint x="890" y="530" />
              <mxPoint x="890" y="550" />
              <mxPoint x="910" y="550" />
              <mxPoint x="910" y="570" />
              <mxPoint x="930" y="570" />
            </Array>
          </mxGeometry>
        </mxCell>
        <mxCell id="QdMFIpOWDVR-zZth7uCI-9" value="PM&lt;br&gt;a" style="rhombus;whiteSpace=wrap;html=1;fillColor=#e3c800;fontColor=#000000;strokeColor=#ffffff;" parent="1" vertex="1">
          <mxGeometry x="810" y="409" width="80" height="80" as="geometry" />
        </mxCell>
        <mxCell id="QdMFIpOWDVR-zZth7uCI-42" style="edgeStyle=orthogonalEdgeStyle;rounded=0;orthogonalLoop=1;jettySize=auto;html=1;exitX=1;exitY=1;exitDx=0;exitDy=0;jumpSize=6;strokeWidth=3;strokeColor=#ffffff;" parent="1" source="QdMFIpOWDVR-zZth7uCI-10" target="QdMFIpOWDVR-zZth7uCI-18" edge="1">
          <mxGeometry relative="1" as="geometry">
            <Array as="points">
              <mxPoint x="950" y="490" />
              <mxPoint x="930" y="490" />
            </Array>
          </mxGeometry>
        </mxCell>
        <mxCell id="QdMFIpOWDVR-zZth7uCI-54" style="edgeStyle=orthogonalEdgeStyle;rounded=0;orthogonalLoop=1;jettySize=auto;html=1;exitX=1;exitY=1;exitDx=0;exitDy=0;entryX=0;entryY=0.5;entryDx=0;entryDy=0;entryPerimeter=0;jumpSize=6;strokeWidth=3;strokeColor=#ffffff;" parent="1" source="QdMFIpOWDVR-zZth7uCI-10" target="QdMFIpOWDVR-zZth7uCI-19" edge="1">
          <mxGeometry relative="1" as="geometry">
            <Array as="points">
              <mxPoint x="970" y="389" />
              <mxPoint x="970" y="410" />
              <mxPoint x="990" y="410" />
              <mxPoint x="990" y="430" />
              <mxPoint x="1010" y="430" />
              <mxPoint x="1010" y="450" />
              <mxPoint x="1030" y="450" />
              <mxPoint x="1030" y="470" />
              <mxPoint x="1050" y="470" />
              <mxPoint x="1050" y="483" />
            </Array>
          </mxGeometry>
        </mxCell>
        <mxCell id="QdMFIpOWDVR-zZth7uCI-10" value="PM&lt;br&gt;b" style="rhombus;whiteSpace=wrap;html=1;fillColor=#e3c800;fontColor=#000000;strokeColor=#ffffff;" parent="1" vertex="1">
          <mxGeometry x="890" y="329" width="80" height="80" as="geometry" />
        </mxCell>
        <mxCell id="QdMFIpOWDVR-zZth7uCI-41" style="edgeStyle=orthogonalEdgeStyle;rounded=0;orthogonalLoop=1;jettySize=auto;html=1;exitX=1;exitY=1;exitDx=0;exitDy=0;entryX=0.5;entryY=0;entryDx=0;entryDy=0;entryPerimeter=0;jumpSize=6;strokeWidth=3;strokeColor=#ffffff;" parent="1" source="QdMFIpOWDVR-zZth7uCI-11" target="QdMFIpOWDVR-zZth7uCI-19" edge="1">
          <mxGeometry relative="1" as="geometry">
            <Array as="points">
              <mxPoint x="1040" y="330" />
              <mxPoint x="1090" y="330" />
            </Array>
          </mxGeometry>
        </mxCell>
        <mxCell id="QdMFIpOWDVR-zZth7uCI-11" value="PM&lt;br&gt;c" style="rhombus;whiteSpace=wrap;html=1;fillColor=#e3c800;fontColor=#000000;strokeColor=#ffffff;" parent="1" vertex="1">
          <mxGeometry x="980" y="249" width="80" height="80" as="geometry" />
        </mxCell>
        <mxCell id="QdMFIpOWDVR-zZth7uCI-47" style="edgeStyle=orthogonalEdgeStyle;rounded=0;orthogonalLoop=1;jettySize=auto;html=1;entryX=0.5;entryY=0;entryDx=0;entryDy=0;entryPerimeter=0;jumpSize=6;strokeWidth=3;strokeColor=#ffffff;" parent="1" source="QdMFIpOWDVR-zZth7uCI-12" target="QdMFIpOWDVR-zZth7uCI-20" edge="1">
          <mxGeometry relative="1" as="geometry" />
        </mxCell>
        <mxCell id="QdMFIpOWDVR-zZth7uCI-52" style="edgeStyle=orthogonalEdgeStyle;rounded=0;orthogonalLoop=1;jettySize=auto;html=1;entryX=1;entryY=0.5;entryDx=0;entryDy=0;entryPerimeter=0;jumpSize=6;strokeWidth=3;strokeColor=#ffffff;" parent="1" source="QdMFIpOWDVR-zZth7uCI-12" target="QdMFIpOWDVR-zZth7uCI-16" edge="1">
          <mxGeometry relative="1" as="geometry">
            <mxPoint x="230" y="509" as="targetPoint" />
            <Array as="points">
              <mxPoint x="370" y="489" />
              <mxPoint x="370" y="559" />
              <mxPoint x="310" y="559" />
              <mxPoint x="310" y="639" />
            </Array>
          </mxGeometry>
        </mxCell>
        <mxCell id="QdMFIpOWDVR-zZth7uCI-12" value="PM&lt;br&gt;a" style="rhombus;whiteSpace=wrap;html=1;fillColor=#f0a30a;fontColor=#000000;strokeColor=#ffffff;" parent="1" vertex="1">
          <mxGeometry x="410" y="429" width="80" height="80" as="geometry" />
        </mxCell>
        <mxCell id="QdMFIpOWDVR-zZth7uCI-46" style="edgeStyle=orthogonalEdgeStyle;rounded=0;orthogonalLoop=1;jettySize=auto;html=1;exitX=0.5;exitY=1;exitDx=0;exitDy=0;entryX=0.5;entryY=0;entryDx=0;entryDy=0;entryPerimeter=0;jumpSize=6;strokeWidth=3;strokeColor=#ffffff;" parent="1" source="QdMFIpOWDVR-zZth7uCI-13" target="QdMFIpOWDVR-zZth7uCI-17" edge="1">
          <mxGeometry relative="1" as="geometry">
            <Array as="points">
              <mxPoint x="580" y="540" />
              <mxPoint x="620" y="540" />
              <mxPoint x="620" y="570" />
              <mxPoint x="660" y="570" />
              <mxPoint x="660" y="600" />
              <mxPoint x="710" y="600" />
            </Array>
          </mxGeometry>
        </mxCell>
        <mxCell id="QdMFIpOWDVR-zZth7uCI-13" value="PM&lt;br&gt;b" style="rhombus;whiteSpace=wrap;html=1;fillColor=#f0a30a;fontColor=#000000;strokeColor=#ffffff;" parent="1" vertex="1">
          <mxGeometry x="540" y="429" width="80" height="80" as="geometry" />
        </mxCell>
        <mxCell id="QdMFIpOWDVR-zZth7uCI-49" style="edgeStyle=orthogonalEdgeStyle;rounded=0;orthogonalLoop=1;jettySize=auto;html=1;exitX=0.5;exitY=1;exitDx=0;exitDy=0;jumpSize=6;strokeWidth=3;strokeColor=#ffffff;" parent="1" source="QdMFIpOWDVR-zZth7uCI-14" target="QdMFIpOWDVR-zZth7uCI-18" edge="1">
          <mxGeometry relative="1" as="geometry">
            <Array as="points">
              <mxPoint x="710" y="539" />
              <mxPoint x="740" y="539" />
              <mxPoint x="740" y="570" />
              <mxPoint x="780" y="570" />
              <mxPoint x="780" y="590" />
              <mxPoint x="930" y="590" />
            </Array>
          </mxGeometry>
        </mxCell>
        <mxCell id="QdMFIpOWDVR-zZth7uCI-50" style="edgeStyle=orthogonalEdgeStyle;rounded=0;orthogonalLoop=1;jettySize=auto;html=1;entryX=0.5;entryY=0;entryDx=0;entryDy=0;entryPerimeter=0;jumpSize=6;strokeWidth=3;strokeColor=#ffffff;" parent="1" source="QdMFIpOWDVR-zZth7uCI-14" target="QdMFIpOWDVR-zZth7uCI-17" edge="1">
          <mxGeometry relative="1" as="geometry" />
        </mxCell>
        <mxCell id="QdMFIpOWDVR-zZth7uCI-14" value="PM&lt;br&gt;c" style="rhombus;whiteSpace=wrap;html=1;fillColor=#f0a30a;fontColor=#000000;strokeColor=#ffffff;" parent="1" vertex="1">
          <mxGeometry x="670" y="429" width="80" height="80" as="geometry" />
        </mxCell>
        <mxCell id="QdMFIpOWDVR-zZth7uCI-15" value="ATS 1" style="shape=cylinder3;whiteSpace=wrap;html=1;boundedLbl=1;backgroundOutline=1;size=15;fillColor=#647687;fontColor=#ffffff;strokeColor=#ffffff;" parent="1" vertex="1">
          <mxGeometry x="40" y="443" width="60" height="80" as="geometry" />
        </mxCell>
        <mxCell id="QdMFIpOWDVR-zZth7uCI-16" value="ATS 2" style="shape=cylinder3;whiteSpace=wrap;html=1;boundedLbl=1;backgroundOutline=1;size=15;fillColor=#647687;fontColor=#ffffff;strokeColor=#ffffff;" parent="1" vertex="1">
          <mxGeometry x="200" y="599" width="60" height="80" as="geometry" />
        </mxCell>
        <mxCell id="QdMFIpOWDVR-zZth7uCI-17" value="ATS 4" style="shape=cylinder3;whiteSpace=wrap;html=1;boundedLbl=1;backgroundOutline=1;size=15;fillColor=#647687;fontColor=#ffffff;strokeColor=#ffffff;" parent="1" vertex="1">
          <mxGeometry x="680" y="639" width="60" height="80" as="geometry" />
        </mxCell>
        <mxCell id="QdMFIpOWDVR-zZth7uCI-18" value="ATS 5" style="shape=cylinder3;whiteSpace=wrap;html=1;boundedLbl=1;backgroundOutline=1;size=15;fillColor=#647687;fontColor=#ffffff;strokeColor=#ffffff;" parent="1" vertex="1">
          <mxGeometry x="900" y="599" width="60" height="80" as="geometry" />
        </mxCell>
        <mxCell id="QdMFIpOWDVR-zZth7uCI-19" value="ATS 6" style="shape=cylinder3;whiteSpace=wrap;html=1;boundedLbl=1;backgroundOutline=1;size=15;fillColor=#647687;fontColor=#ffffff;strokeColor=#ffffff;" parent="1" vertex="1">
          <mxGeometry x="1060" y="443" width="60" height="80" as="geometry" />
        </mxCell>
        <mxCell id="QdMFIpOWDVR-zZth7uCI-20" value="ATS 3" style="shape=cylinder3;whiteSpace=wrap;html=1;boundedLbl=1;backgroundOutline=1;size=15;fillColor=#647687;fontColor=#ffffff;strokeColor=#ffffff;" parent="1" vertex="1">
          <mxGeometry x="420" y="639" width="60" height="80" as="geometry" />
        </mxCell>
      </root>
    </mxGraphModel>
  </diagram>
</mxfile>
